<?xml version="1.0" encoding="utf-8"?>
<!-- Generator: Adobe Illustrator 21.0.2, SVG Export Plug-In . SVG Version: 6.00 Build 0)  -->
<svg version="1.1" id="Layer_1" xmlns="http://www.w3.org/2000/svg" xmlns:xlink="http://www.w3.org/1999/xlink" x="0px" y="0px"
	 viewBox="0 0 64 64" style="enable-background:new 0 0 64 64;" xml:space="preserve">
<style type="text/css">
	.st0{stroke:#000000;stroke-miterlimit:10;}
	.st1{fill:none;}
	.st2{font-family:'Microsoft-Himalaya';}
	.st3{font-size:36px;}
</style>
<path class="st0" d="M49.3,32H12.5c-0.6,0-1-0.5-1-1v-2c0-0.6,0.5-1,1-1h36.8c0.6,0,1,0.5,1,1v2C50.3,31.5,49.9,32,49.3,32z"/>
<path class="st0" d="M20.2,40.2h-1c-0.5,0-1-0.4-1-1v-7.9c0-0.5,0.4-1,1-1h1c0.5,0,1,0.4,1,1v7.9C21.2,39.8,20.7,40.2,20.2,40.2z"/>
<path class="st0" d="M43.3,40.2h-1c-0.5,0-1-0.4-1-1v-7.9c0-0.5,0.4-1,1-1h1c0.5,0,1,0.4,1,1v7.9C44.2,39.8,43.8,40.2,43.3,40.2z"/>
<rect x="22.7" y="9.3" class="st1" width="16.5" height="23.3"/>
<text transform="matrix(1 0 0 1 22.6506 26.0406)" class="st2 st3">B</text>
</svg>
